<svg width="13" height="10" viewBox="0 0 13 10" fill="none" xmlns="http://www.w3.org/2000/svg">
<path d="M12.435 2.10992C12.435 1.91695 12.3578 1.72398 12.2189 1.58505L11.1691 0.535287C11.0302 0.396349 10.8372 0.31916 10.6442 0.31916C10.4513 0.31916 10.2583 0.396349 10.1194 0.535287L5.05581 5.60654L2.78648 3.3295C2.64754 3.19056 2.45457 3.11337 2.2616 3.11337C2.06863 3.11337 1.87566 3.19056 1.73673 3.3295L0.686968 4.37925C0.548029 4.51819 0.470841 4.71116 0.470841 4.90413C0.470841 5.0971 0.548029 5.29007 0.686968 5.42901L3.48118 8.22322L4.53093 9.27298C4.66987 9.41192 4.86284 9.4891 5.05581 9.4891C5.24878 9.4891 5.44175 9.41192 5.58069 9.27298L6.63045 8.22322L12.2189 2.6348C12.3578 2.49586 12.435 2.30289 12.435 2.10992Z" fill="#ED9D5C"/>
</svg>
