<svg width="15" height="12" viewBox="0 0 15 12" fill="none" xmlns="http://www.w3.org/2000/svg">
<path d="M14.0479 2.1865C13.5548 2.39903 13.0193 2.55206 12.4667 2.61157C13.0363 2.27152 13.4698 1.73594 13.6739 1.09835C13.1468 1.41289 12.5517 1.64243 11.9311 1.76144C11.4295 1.22587 10.7154 0.894319 9.92483 0.894319C8.40311 0.894319 7.17893 2.127 7.17893 3.64021C7.17893 3.85274 7.20443 4.06527 7.24694 4.2693C4.96861 4.15029 2.93682 3.06213 1.58513 1.39589C1.3471 1.80395 1.21108 2.27152 1.21108 2.78159C1.21108 3.73373 1.69565 4.57535 2.43525 5.06842C1.98469 5.05141 1.55963 4.9239 1.19407 4.71987C1.19407 4.72837 1.19407 4.74537 1.19407 4.75387C1.19407 6.08856 2.13771 7.19372 3.39589 7.44876C3.16636 7.50827 2.91982 7.54227 2.67329 7.54227C2.49476 7.54227 2.32474 7.52527 2.15471 7.49977C2.50326 8.58792 3.51491 9.37854 4.72208 9.40404C3.77844 10.1436 2.59677 10.5772 1.31309 10.5772C1.08356 10.5772 0.871027 10.5687 0.649995 10.5432C1.86567 11.3253 3.31088 11.7759 4.8666 11.7759C9.91632 11.7759 12.6792 7.59328 12.6792 3.96326C12.6792 3.84424 12.6792 3.72522 12.6707 3.60621C13.2063 3.21515 13.6739 2.73058 14.0479 2.1865Z" fill="white"/>
</svg>
