<svg width="14" height="14" viewBox="0 0 14 14" fill="none" xmlns="http://www.w3.org/2000/svg">
<path d="M7.17304 6.39996V8.64429H10.8796C10.7265 9.60492 9.75741 11.4582 7.17304 11.4582C4.94572 11.4582 3.12646 9.61343 3.12646 7.3351C3.12646 5.05677 4.94572 3.21201 7.17304 3.21201C8.43972 3.21201 9.28984 3.75609 9.77441 4.22365L11.5512 2.51491C10.412 1.45226 8.93279 0.806163 7.17304 0.806163C3.56002 0.806163 0.644104 3.72208 0.644104 7.3351C0.644104 10.9481 3.56002 13.864 7.17304 13.864C10.9391 13.864 13.4384 11.2117 13.4384 7.48812C13.4384 7.05456 13.3959 6.73151 13.3364 6.39996H7.17304Z" fill="white"/>
</svg>
