<svg width="94" height="101" viewBox="0 0 94 101" fill="none" xmlns="http://www.w3.org/2000/svg">
<g clip-path="url(#clip0)">
<path d="M59.4103 15.1233L78.6843 53.8702C80.1247 56.7659 83.3148 57.758 85.8097 56.0862C88.3045 54.4144 89.1593 50.7117 87.7189 47.8161L68.4449 9.06915C67.0046 6.17349 63.8144 5.18136 61.3196 6.85317C58.8247 8.52499 57.9699 12.2277 59.4103 15.1233Z" fill="#34495E"/>
<path d="M25.9626 9.0767L6.68863 47.8236C5.24824 50.7193 6.10304 54.4219 8.59788 56.0937C11.0927 57.7655 14.2829 56.7734 15.7233 53.8778L34.9972 15.1309C36.4376 12.2352 35.5828 8.53253 33.088 6.86072C30.5931 5.1889 27.403 6.18103 25.9626 9.0767Z" fill="#34495E"/>
<path d="M87.4702 82.0452H6.52984C2.92351 82.0452 0 85.4384 0 89.6241V93.4136C0 97.5993 2.92351 100.992 6.52984 100.992H87.4702C91.0765 100.992 94 97.5993 94 93.4136V89.6241C94 85.4384 91.0765 82.0452 87.4702 82.0452Z" fill="#34495E"/>
<path d="M43.3068 0H51.3822C58.2138 0 64.7656 3.14987 69.5963 8.75667C74.427 14.3635 77.1409 21.9679 77.1409 29.8971V85.0798H17.5481V29.8971C17.5481 21.9679 20.262 14.3635 25.0926 8.75667C29.9233 3.14987 36.4752 0 43.3068 0V0Z" fill="#34495E"/>
<path d="M47.3445 27.8567C55.247 27.8567 62.8258 31.5003 68.4137 37.986C74.0016 44.4716 77.1409 53.2681 77.1409 62.4402V77.3888C77.1409 78.6317 76.7155 79.8237 75.9583 80.7025C75.2011 81.5814 74.1741 82.0751 73.1032 82.0751H21.5858C20.5149 82.0751 19.4879 81.5814 18.7307 80.7025C17.9735 79.8237 17.5481 78.6317 17.5481 77.3888V62.4402C17.5481 53.2681 20.6874 44.4716 26.2753 37.986C31.8632 31.5003 39.442 27.8567 47.3445 27.8567Z" fill="#E67E22"/>
<path d="M74.0692 72.0073H20.6263C16.3585 72.0073 12.8987 76.0229 12.8987 80.9765V92.0309C12.8987 96.9844 16.3585 101 20.6263 101H74.0692C78.337 101 81.7968 96.9844 81.7968 92.0309V80.9765C81.7968 76.0229 78.337 72.0073 74.0692 72.0073Z" fill="#34495E"/>
<path d="M30.859 72.0073H28.4054C27.7759 72.0073 27.2656 72.5996 27.2656 73.3303V99.6771C27.2656 100.408 27.7759 101 28.4054 101H30.859C31.4885 101 31.9988 100.408 31.9988 99.6771V73.3303C31.9988 72.5996 31.4885 72.0073 30.859 72.0073Z" fill="#E67E22"/>
<path d="M65.0858 72.0073H62.6323C62.0028 72.0073 61.4924 72.5996 61.4924 73.3303V99.6771C61.4924 100.408 62.0028 101 62.6323 101H65.0858C65.7153 101 66.2256 100.408 66.2256 99.6771V73.3303C66.2256 72.5996 65.7153 72.0073 65.0858 72.0073Z" fill="#E67E22"/>
<path d="M30.2537 77.5605H28.9528C28.5012 77.5605 28.135 77.9855 28.135 78.5098V81.2229C28.135 81.7472 28.5012 82.1722 28.9528 82.1722H30.2537C30.7053 82.1722 31.0715 81.7472 31.0715 81.2229V78.5098C31.0715 77.9855 30.7053 77.5605 30.2537 77.5605Z" fill="#34495E"/>
<path d="M64.5063 77.5605H63.2055C62.7539 77.5605 62.3877 77.9855 62.3877 78.5098V81.2229C62.3877 81.7472 62.7539 82.1722 63.2055 82.1722H64.5063C64.958 82.1722 65.3242 81.7472 65.3242 81.2229V78.5098C65.3242 77.9855 64.958 77.5605 64.5063 77.5605Z" fill="#34495E"/>
<path d="M65.1187 15H63.8178C63.3662 15 63 15.425 63 15.9492V18.6624C63 19.1867 63.3662 19.6116 63.8178 19.6116H65.1187C65.5703 19.6116 65.9365 19.1867 65.9365 18.6624V15.9492C65.9365 15.425 65.5703 15 65.1187 15Z" fill="#34495E"/>
<path d="M31.1187 15H29.8178C29.3662 15 29 15.425 29 15.9492V18.6624C29 19.1867 29.3662 19.6116 29.8178 19.6116H31.1187C31.5703 19.6116 31.9365 19.1867 31.9365 18.6624V15.9492C31.9365 15.425 31.5703 15 31.1187 15Z" fill="#34495E"/>
<path d="M50.2102 35.3384H42.972C38.7042 35.3384 35.2444 39.354 35.2444 44.3075V84.5416C35.2444 89.4951 38.7042 93.5107 42.972 93.5107H50.2102C54.478 93.5107 57.9378 89.4951 57.9378 84.5416V44.3075C57.9378 39.354 54.478 35.3384 50.2102 35.3384Z" fill="#E67E22"/>
<path d="M49.7959 -3H47.2041C46.5391 -3 46 -2.4076 46 -1.67684V40.6768C46 41.4076 46.5391 42 47.2041 42H49.7959C50.4609 42 51 41.4076 51 40.6768V-1.67684C51 -2.4076 50.4609 -3 49.7959 -3Z" fill="#E67E22"/>
<path d="M7.46356 89.2205H6.16275C5.71107 89.2205 5.34491 89.6454 5.34491 90.1697V92.8829C5.34491 93.4071 5.71107 93.8321 6.16275 93.8321H7.46356C7.91524 93.8321 8.2814 93.4071 8.2814 92.8829V90.1697C8.2814 89.6454 7.91524 89.2205 7.46356 89.2205Z" fill="#E67E22"/>
<path d="M87.9531 89.2205H86.6523C86.2006 89.2205 85.8345 89.6454 85.8345 90.1697V92.8829C85.8345 93.4071 86.2006 93.8321 86.6523 93.8321H87.9531C88.4048 93.8321 88.771 93.4071 88.771 92.8829V90.1697C88.771 89.6454 88.4048 89.2205 87.9531 89.2205Z" fill="#E67E22"/>
<path d="M81.8934 46.6958L80.7669 47.4507C80.3757 47.7128 80.2417 48.2934 80.4675 48.7474L81.6363 51.097C81.8622 51.551 82.3623 51.7066 82.7535 51.4445L83.88 50.6896C84.2712 50.4275 84.4052 49.8469 84.1794 49.3929L83.0106 47.0432C82.7848 46.5892 82.2846 46.4337 81.8934 46.6958Z" fill="#E67E22"/>
<path d="M10.5345 50.6941L11.6611 51.449C12.0522 51.7111 12.5524 51.5555 12.7782 51.1015L13.9471 48.7518C14.1729 48.2978 14.0389 47.7173 13.6477 47.4552L12.5212 46.7003C12.13 46.4381 11.6298 46.5937 11.404 47.0477L10.2352 49.3974C10.0093 49.8514 10.1433 50.4319 10.5345 50.6941Z" fill="#E67E22"/>
<path d="M50.8275 40H43.1725C38.659 40 35 42.347 35 45.2422V68.7578C35 71.653 38.659 74 43.1725 74H50.8275C55.341 74 59 71.653 59 68.7578V45.2422C59 42.347 55.341 40 50.8275 40Z" fill="#23485F"/>
</g>
<defs>
<clipPath id="clip0">
<rect width="94" height="101" fill="white"/>
</clipPath>
</defs>
</svg>
