<svg width="144" height="101" viewBox="0 0 144 101" fill="none" xmlns="http://www.w3.org/2000/svg">
<path d="M39.2069 12.9409C39.2069 12.9409 72.5927 14.8295 103.286 0C103.286 0 112.506 43.4737 138.558 74.8139L79.5929 100.494C79.5929 100.494 44.658 47.3145 39.2069 12.9409Z" fill="#34495E"/>
<path d="M39.2069 12.9409C39.2069 12.9409 21.9424 63.1893 2.1539 85.2275L79.5929 100.494L56.8718 57.3741L39.2069 12.9409Z" fill="#0C2B41"/>
<path d="M39.6294 34.5146L20.3242 81.937C20.3242 81.937 17.6345 88.283 25.4687 89.8011C36.0616 91.8529 55.4441 95.7683 55.4441 95.7683C55.4441 95.7683 61.7292 94.9277 57.0237 82.7721C51.5312 68.5813 39.6294 34.5146 39.6294 34.5146Z" fill="#E67E22"/>
<path d="M39.6211 34.8328L27.9789 90.3155L37.064 92.0825L46.3645 93.9434L39.6211 34.8328Z" fill="#611900"/>
<path d="M3.97095 85.587L2.15392 85.2276L0 74.2609L2.5847 73.8047L3.97095 85.587Z" fill="#7B3000"/>
<path d="M2.57404 73.8076C2.6127 74.026 2.0687 74.3053 1.36177 74.4325C0.654844 74.5597 0.0473271 74.4795 0.00866699 74.2611" fill="#E5AFA1"/>
<path d="M77.845 100.148L82.1114 89.2812L84.5028 90.368L79.593 100.494" fill="#7B3000"/>
<path d="M84.4641 90.3899C84.373 90.5918 83.7655 90.5171 83.111 90.2185C82.4566 89.9199 82.0009 89.5161 82.092 89.3115" fill="#E5AFA1"/>
<path d="M136.448 75.7319L141.043 63.6316L143.435 64.7183L138.541 74.8166" fill="#7B3000"/>
<path d="M143.426 64.7129C143.335 64.9148 142.728 64.8401 142.073 64.5415C141.419 64.2429 140.963 63.8391 141.054 63.6345" fill="#E5AFA1"/>
</svg>
