<svg width="91" height="103" viewBox="0 0 91 103" fill="none" xmlns="http://www.w3.org/2000/svg">
<g clip-path="url(#clip0)">
<path d="M35.2353 63.0065C36.4334 60.4352 35.1656 57.4465 32.4035 56.3311C29.6415 55.2157 26.4312 56.396 25.2331 58.9674L8.01864 95.9126C6.82055 98.4839 8.08835 101.473 10.8504 102.588C13.6124 103.703 16.8227 102.523 18.0208 99.9517L35.2353 63.0065Z" fill="#34495E"/>
<path d="M72.891 99.9927C74.0891 102.564 77.2994 103.744 80.0614 102.629C82.8234 101.514 84.0912 98.5249 82.8931 95.9535L65.6787 59.0083C64.4806 56.437 61.2703 55.2568 58.5082 56.3721C55.7462 57.4875 54.4784 60.4761 55.6765 63.0475L72.891 99.9927Z" fill="#34495E"/>
<path d="M6.328 39.1362C6.328 48.8068 10.4545 58.0812 17.7998 64.9193C25.145 71.7574 35.1073 75.599 45.495 75.599C55.8827 75.599 65.845 71.7574 73.1902 64.9193C80.5354 58.0812 84.662 48.8068 84.662 39.1362" fill="#34495E"/>
<path d="M12.4545 39.1362C12.4545 47.2941 15.9355 55.1179 22.1318 60.8863C28.3281 66.6548 36.7321 69.8955 45.495 69.8955C54.2579 69.8955 62.6619 66.6548 68.8582 60.8863C75.0545 55.1179 78.5356 47.2941 78.5356 39.1362" fill="#E67E22"/>
<path d="M85.5487 39.1455C88.5594 39.1455 91 36.8734 91 34.0706C91 31.2677 88.5594 28.9956 85.5487 28.9956L5.45131 28.9956C2.44062 28.9956 0 31.2677 0 34.0706C0 36.8734 2.44062 39.1455 5.45131 39.1455L85.5487 39.1455Z" fill="#34495E"/>
<path d="M46.8149 44.9805C46.8149 44.307 46.2285 43.761 45.505 43.761C44.7815 43.761 44.1951 44.307 44.1951 44.9805V50.3931C44.1951 51.0666 44.7815 51.6126 45.505 51.6126C46.2285 51.6126 46.8149 51.0666 46.8149 50.3931V44.9805Z" fill="#34495E"/>
<path d="M55.0474 44.9805C55.0474 44.307 54.4609 43.761 53.7374 43.761C53.014 43.761 52.4275 44.307 52.4275 44.9805V50.3931C52.4275 51.0666 53.014 51.6126 53.7374 51.6126C54.4609 51.6126 55.0474 51.0666 55.0474 50.3931V44.9805Z" fill="#34495E"/>
<path d="M62.8364 44.9805C62.8364 44.307 62.2499 43.761 61.5265 43.761C60.803 43.761 60.2166 44.307 60.2166 44.9805V50.3931C60.2166 51.0666 60.803 51.6126 61.5265 51.6126C62.2499 51.6126 62.8364 51.0666 62.8364 50.3931V44.9805Z" fill="#34495E"/>
<path d="M70.3131 44.9805C70.3131 44.307 69.7266 43.761 69.0032 43.761C68.2797 43.761 67.6932 44.307 67.6932 44.9805V50.3931C67.6932 51.0666 68.2797 51.6126 69.0032 51.6126C69.7266 51.6126 70.3131 51.0666 70.3131 50.3931V44.9805Z" fill="#34495E"/>
<path d="M23.1455 44.9805C23.1455 44.307 22.559 43.761 21.8356 43.761C21.1121 43.761 20.5256 44.307 20.5256 44.9805V50.3931C20.5256 51.0666 21.1121 51.6126 21.8356 51.6126C22.559 51.6126 23.1455 51.0666 23.1455 50.3931V44.9805Z" fill="#34495E"/>
<path d="M30.9447 44.9805C30.9447 44.307 30.3582 43.761 29.6348 43.761C28.9113 43.761 28.3248 44.307 28.3248 44.9805V50.3931C28.3248 51.0666 28.9113 51.6126 29.6348 51.6126C30.3582 51.6126 30.9447 51.0666 30.9447 50.3931V44.9805Z" fill="#34495E"/>
<path d="M38.4112 44.9805C38.4112 44.307 37.8248 43.761 37.1013 43.761C36.3779 43.761 35.7914 44.307 35.7914 44.9805V50.3931C35.7914 51.0666 36.3779 51.6126 37.1013 51.6126C37.8248 51.6126 38.4112 51.0666 38.4112 50.3931V44.9805Z" fill="#34495E"/>
<path d="M33.0103 1.37891C33.0103 1.37891 47.8226 7.55141 33.766 22.2041" stroke="#34495E" stroke-width="3" stroke-miterlimit="10" stroke-linecap="round"/>
<path d="M61.4963 8.19873C61.2018 10.0403 61.6311 11.919 62.7055 13.4895C64.0561 15.2242 65.5058 16.8901 67.0484 18.48C67.8222 19.6081 68.2827 20.8975 68.3886 22.2323" stroke="#34495E" stroke-width="3" stroke-miterlimit="10" stroke-linecap="round"/>
<path d="M26.7227 8.22681C27.0167 10.0726 26.5837 11.9551 25.5034 13.5269C24.236 15.3196 22.7813 16.9912 21.1605 18.5174C20.3867 19.6455 19.9262 20.9349 19.8203 22.2697" stroke="#34495E" stroke-width="3" stroke-miterlimit="10" stroke-linecap="round"/>
<path d="M55.8334 1.4353C55.8334 1.4353 41.011 7.60781 55.0776 22.2605" stroke="#34495E" stroke-width="3" stroke-miterlimit="10" stroke-linecap="round"/>
<path d="M17.4321 84.4075H75.0289" stroke="#34495E" stroke-width="3" stroke-miterlimit="10"/>
</g>
<defs>
<clipPath id="clip0">
<rect width="91" height="103" fill="white"/>
</clipPath>
</defs>
</svg>
