<svg width="45" height="32" viewBox="0 0 45 32" fill="none" xmlns="http://www.w3.org/2000/svg">
<path d="M42.2626 6.0375C42.0399 5.14764 41.5863 4.33232 40.9476 3.67389C40.3089 3.01545 39.5078 2.53722 38.6251 2.2875C35.4001 1.5 22.5001 1.5 22.5001 1.5C22.5001 1.5 9.6001 1.5 6.3751 2.3625C5.49243 2.61222 4.6913 3.09045 4.05262 3.74889C3.41394 4.40732 2.96032 5.22264 2.7376 6.1125C2.14737 9.38542 1.85866 12.7056 1.8751 16.0312C1.85406 19.382 2.14278 22.7274 2.7376 26.025C2.98314 26.8872 3.44692 27.6715 4.08412 28.3021C4.72131 28.9328 5.51038 29.3884 6.3751 29.625C9.6001 30.4875 22.5001 30.4875 22.5001 30.4875C22.5001 30.4875 35.4001 30.4875 38.6251 29.625C39.5078 29.3753 40.3089 28.897 40.9476 28.2386C41.5863 27.5802 42.0399 26.7649 42.2626 25.875C42.8483 22.6267 43.137 19.3319 43.1251 16.0312C43.1461 12.6805 42.8574 9.33506 42.2626 6.0375V6.0375Z" stroke="#E4DFDF" stroke-width="2.5" stroke-linecap="round" stroke-linejoin="round"/>
<path d="M18.2812 22.1625L29.0625 16.0313L18.2812 9.90002V22.1625Z" stroke="#E4DFDF" stroke-width="2.5" stroke-linecap="round" stroke-linejoin="round"/>
</svg>
