<svg width="18" height="18" viewBox="0 0 18 18" fill="none" xmlns="http://www.w3.org/2000/svg">
<path d="M16.2337 12.8036V15.1058C16.2346 15.3195 16.1909 15.531 16.1054 15.7269C16.02 15.9227 15.8946 16.0985 15.7374 16.2429C15.5802 16.3874 15.3946 16.4974 15.1926 16.5659C14.9905 16.6344 14.7764 16.6598 14.5639 16.6406C12.2069 16.384 9.94279 15.5771 7.95357 14.2847C6.10285 13.1064 4.53377 11.5344 3.35775 9.68029C2.06324 7.67832 1.25764 5.399 1.00622 3.027C0.987076 2.81479 1.01225 2.60091 1.08013 2.39898C1.14802 2.19705 1.25713 2.0115 1.40051 1.85413C1.5439 1.69676 1.71842 1.57103 1.91297 1.48494C2.10751 1.39884 2.31782 1.35428 2.5305 1.35408H4.82841C5.20014 1.35041 5.56052 1.48229 5.84237 1.72514C6.12423 1.96798 6.30832 2.30522 6.36035 2.67399C6.45734 3.41074 6.63721 4.13413 6.89653 4.83037C6.99959 5.10504 7.02189 5.40355 6.9608 5.69053C6.89971 5.9775 6.75779 6.24092 6.55184 6.44957L5.57906 7.42416C6.66946 9.34536 8.25724 10.9361 10.1749 12.0285L11.1477 11.0539C11.3559 10.8476 11.6189 10.7054 11.9053 10.6442C12.1917 10.583 12.4897 10.6054 12.7639 10.7086C13.4588 10.9684 14.1809 11.1486 14.9162 11.2458C15.2883 11.2984 15.6281 11.4861 15.871 11.7734C16.114 12.0606 16.243 12.4272 16.2337 12.8036Z" stroke="white" stroke-width="1.69269" stroke-linecap="round" stroke-linejoin="round"/>
</svg>
